<svg width="47" height="31" viewBox="0 0 47 31" fill="none" xmlns="http://www.w3.org/2000/svg"><path d="M28.65 30.3001C27.65 30.3001 26.7 30.1001 25.8 29.7001C24.9 29.3001 24.2 28.6001 23.7 27.6001C23.2 26.8001 22.95 25.7501 22.95 24.4501C22.95 22.3501 23.55 20.0001 24.75 17.4001C26.05 14.7001 27.75 12.1501 29.85 9.7501C31.95 7.2501 34.35 5.1501 37.05 3.4501C39.85 1.75009 42.75 0.800095 45.75 0.600098C46.25 0.600098 46.55 0.950096 46.65 1.65009C46.75 2.2501 46.55 2.6001 46.05 2.7001C43.05 3.00009 40.25 4.10009 37.65 6.0001C35.05 7.9001 32.95 10.1001 31.35 12.6001C29.75 15.0001 28.95 17.1501 28.95 19.0501C29.65 18.0501 30.6 17.2001 31.8 16.5001C33.1 15.8001 34.35 15.4501 35.55 15.4501C36.95 15.4501 38.1 15.9001 39 16.8001C39.8 17.5001 40.2 18.5001 40.2 19.8001C40.2 20.8001 39.9 21.9501 39.3 23.2501C38.7 24.4501 37.8 25.6001 36.6 26.7001C34.4 29.1001 31.75 30.3001 28.65 30.3001ZM5.7 30.3001C4.7 30.3001 3.75 30.1001 2.85 29.7001C1.95 29.3001 1.25 28.6001 0.75 27.6001C0.25 26.8001 0 25.7501 0 24.4501C0 22.3501 0.6 20.0001 1.8 17.4001C3.1 14.7001 4.8 12.1501 6.9 9.7501C9 7.2501 11.4 5.1501 14.1 3.4501C16.9 1.75009 19.8 0.800095 22.8 0.600098C23.3 0.600098 23.6 0.950096 23.7 1.65009C23.8 2.2501 23.6 2.6001 23.1 2.7001C20.1 3.00009 17.3 4.10009 14.7 6.0001C12.1 7.9001 10 10.1001 8.4 12.6001C6.8 15.0001 6 17.1501 6 19.0501C6.7 18.0501 7.65 17.2001 8.85 16.5001C10.15 15.8001 11.4 15.4501 12.6 15.4501C14 15.4501 15.15 15.9001 16.05 16.8001C16.85 17.5001 17.25 18.5001 17.25 19.8001C17.25 20.8001 16.95 21.9501 16.35 23.2501C15.75 24.4501 14.85 25.6001 13.65 26.7001C11.45 29.1001 8.8 30.3001 5.7 30.3001Z" fill="#9CCC01"/></svg>